<svg width="150" height="150" viewBox="0 0 150 150" fill="none" xmlns="http://www.w3.org/2000/svg">
<rect width="150" height="150" rx="16" fill="black"/>
<path d="M23.4271 86.7222H25.2049V88.5H23.4271V86.7222ZM23.4271 84.9444H25.2049V86.7222H23.4271V84.9444ZM23.4271 83.1667H25.2049V84.9444H23.4271V83.1667ZM23.4271 81.3889H25.2049V83.1667H23.4271V81.3889ZM25.2049 81.3889H26.9826V83.1667H25.2049V81.3889ZM25.2049 79.6111H26.9826V81.3889H25.2049V79.6111ZM25.2049 77.8333H26.9826V79.6111H25.2049V77.8333ZM25.2049 76.0556H26.9826V77.8333H25.2049V76.0556ZM26.9826 76.0556H28.7604V77.8333H26.9826V76.0556ZM26.9826 74.2778H28.7604V76.0556H26.9826V74.2778ZM26.9826 72.5H28.7604V74.2778H26.9826V72.5ZM26.9826 70.7222H28.7604V72.5H26.9826V70.7222ZM28.7604 70.7222H30.5382V72.5H28.7604V70.7222ZM28.7604 68.9444H30.5382V70.7222H28.7604V68.9444ZM28.7604 67.1667H30.5382V68.9444H28.7604V67.1667ZM28.7604 65.3889H30.5382V67.1667H28.7604V65.3889ZM28.7604 63.6111H30.5382V65.3889H28.7604V63.6111ZM30.5382 63.6111H32.316V65.3889H30.5382V63.6111ZM32.316 63.6111H34.0938V65.3889H32.316V63.6111ZM32.316 65.3889H34.0938V67.1667H32.316V65.3889ZM32.316 67.1667H34.0938V68.9444H32.316V67.1667ZM32.316 68.9444H34.0938V70.7222H32.316V68.9444ZM30.5382 68.9444H32.316V70.7222H30.5382V68.9444ZM30.5382 67.1667H32.316V68.9444H30.5382V67.1667ZM30.5382 65.3889H32.316V67.1667H30.5382V65.3889ZM30.5382 70.7222H32.316V72.5H30.5382V70.7222ZM30.5382 72.5H32.316V74.2778H30.5382V72.5ZM30.5382 74.2778H32.316V76.0556H30.5382V74.2778ZM28.7604 74.2778H30.5382V76.0556H28.7604V74.2778ZM28.7604 72.5H30.5382V74.2778H28.7604V72.5ZM28.7604 76.0556H30.5382V77.8333H28.7604V76.0556ZM28.7604 77.8333H30.5382V79.6111H28.7604V77.8333ZM28.7604 79.6111H30.5382V81.3889H28.7604V79.6111ZM26.9826 79.6111H28.7604V81.3889H26.9826V79.6111ZM26.9826 77.8333H28.7604V79.6111H26.9826V77.8333ZM26.9826 81.3889H28.7604V83.1667H26.9826V81.3889ZM26.9826 83.1667H28.7604V84.9444H26.9826V83.1667ZM26.9826 84.9444H28.7604V86.7222H26.9826V84.9444ZM25.2049 84.9444H26.9826V86.7222H25.2049V84.9444ZM25.2049 83.1667H26.9826V84.9444H25.2049V83.1667ZM25.2049 86.7222H26.9826V88.5H25.2049V86.7222ZM26.9826 86.7222H28.7604V88.5H26.9826V86.7222ZM32.316 86.7222H34.0938V88.5H32.316V86.7222ZM32.316 84.9444H34.0938V86.7222H32.316V84.9444ZM32.316 83.1667H34.0938V84.9444H32.316V83.1667ZM32.316 81.3889H34.0938V83.1667H32.316V81.3889ZM34.0938 81.3889H35.8715V83.1667H34.0938V81.3889ZM34.0938 79.6111H35.8715V81.3889H34.0938V79.6111ZM34.0938 77.8333H35.8715V79.6111H34.0938V77.8333ZM34.0938 76.0556H35.8715V77.8333H34.0938V76.0556ZM35.8715 76.0556H37.6493V77.8333H35.8715V76.0556ZM35.8715 74.2778H37.6493V76.0556H35.8715V74.2778ZM35.8715 72.5H37.6493V74.2778H35.8715V72.5ZM37.6493 72.5H39.4271V74.2778H37.6493V72.5ZM37.6493 70.7222H39.4271V72.5H37.6493V70.7222ZM37.6493 68.9444H39.4271V70.7222H37.6493V68.9444ZM37.6493 67.1667H39.4271V68.9444H37.6493V67.1667ZM37.6493 65.3889H39.4271V67.1667H37.6493V65.3889ZM37.6493 63.6111H39.4271V65.3889H37.6493V63.6111ZM39.4271 63.6111H41.2049V65.3889H39.4271V63.6111ZM41.2049 63.6111H42.9826V65.3889H41.2049V63.6111ZM41.2049 65.3889H42.9826V67.1667H41.2049V65.3889ZM41.2049 67.1667H42.9826V68.9444H41.2049V67.1667ZM41.2049 68.9444H42.9826V70.7222H41.2049V68.9444ZM39.4271 68.9444H41.2049V70.7222H39.4271V68.9444ZM39.4271 70.7222H41.2049V72.5H39.4271V70.7222ZM39.4271 72.5H41.2049V74.2778H39.4271V72.5ZM39.4271 74.2778H41.2049V76.0556H39.4271V74.2778ZM37.6493 74.2778H39.4271V76.0556H37.6493V74.2778ZM37.6493 76.0556H39.4271V77.8333H37.6493V76.0556ZM37.6493 77.8333H39.4271V79.6111H37.6493V77.8333ZM37.6493 79.6111H39.4271V81.3889H37.6493V79.6111ZM35.8715 79.6111H37.6493V81.3889H35.8715V79.6111ZM35.8715 81.3889H37.6493V83.1667H35.8715V81.3889ZM35.8715 83.1667H37.6493V84.9444H35.8715V83.1667ZM35.8715 84.9444H37.6493V86.7222H35.8715V84.9444ZM34.0938 84.9444H35.8715V86.7222H34.0938V84.9444ZM34.0938 86.7222H35.8715V88.5H34.0938V86.7222ZM35.8715 86.7222H37.6493V88.5H35.8715V86.7222ZM34.0938 83.1667H35.8715V84.9444H34.0938V83.1667ZM35.8715 77.8333H37.6493V79.6111H35.8715V77.8333ZM39.4271 65.3889H41.2049V67.1667H39.4271V65.3889ZM39.4271 67.1667H41.2049V68.9444H39.4271V67.1667ZM44.7604 68.9444H46.5382V70.7222H44.7604V68.9444ZM42.9826 68.9444H44.7604V70.7222H42.9826V68.9444ZM35.8715 68.9444H37.6493V70.7222H35.8715V68.9444ZM34.0938 68.9444H35.8715V70.7222H34.0938V68.9444ZM26.9826 68.9444H28.7604V70.7222H26.9826V68.9444ZM25.2049 68.9444H26.9826V70.7222H25.2049V68.9444ZM23.4271 68.9444H25.2049V70.7222H23.4271V68.9444ZM23.4271 70.7222H25.2049V72.5H23.4271V70.7222ZM25.2049 70.7222H26.9826V72.5H25.2049V70.7222ZM32.316 70.7222H34.0938V72.5H32.316V70.7222ZM34.0938 70.7222H35.8715V72.5H34.0938V70.7222ZM35.8715 70.7222H37.6493V72.5H35.8715V70.7222ZM41.2049 70.7222H42.9826V72.5H41.2049V70.7222ZM42.9826 70.7222H44.7604V72.5H42.9826V70.7222ZM44.7604 70.7222H46.5382V72.5H44.7604V70.7222ZM41.2049 79.6111H42.9826V81.3889H41.2049V79.6111ZM39.4271 79.6111H41.2049V81.3889H39.4271V79.6111ZM32.316 79.6111H34.0938V81.3889H32.316V79.6111ZM30.5382 79.6111H32.316V81.3889H30.5382V79.6111ZM23.4271 79.6111H25.2049V81.3889H23.4271V79.6111ZM21.6493 79.6111H23.4271V81.3889H21.6493V79.6111ZM19.8715 79.6111H21.6493V81.3889H19.8715V79.6111ZM19.8715 81.3889H21.6493V83.1667H19.8715V81.3889ZM21.6493 81.3889H23.4271V83.1667H21.6493V81.3889ZM28.7604 81.3889H30.5382V83.1667H28.7604V81.3889ZM30.5382 81.3889H32.316V83.1667H30.5382V81.3889ZM37.6493 81.3889H39.4271V83.1667H37.6493V81.3889ZM39.4271 81.3889H41.2049V83.1667H39.4271V81.3889ZM41.2049 81.3889H42.9826V83.1667H41.2049V81.3889ZM80.3403 83.1667H82.1181V84.9444H80.3403V83.1667ZM82.1181 83.1667H83.8958V84.9444H82.1181V83.1667ZM83.8958 83.1667H85.6736V84.9444H83.8958V83.1667ZM83.8958 84.9444H85.6736V86.7222H83.8958V84.9444ZM83.8958 86.7222H85.6736V88.5H83.8958V86.7222ZM82.1181 86.7222H83.8958V88.5H82.1181V86.7222ZM80.3403 86.7222H82.1181V88.5H80.3403V86.7222ZM80.3403 84.9444H82.1181V86.7222H80.3403V84.9444ZM82.1181 84.9444H83.8958V86.7222H82.1181V84.9444Z" fill="#44FF00"/>
<path d="M50.1059 61.8333H51.8837V63.6111H50.1059V61.8333ZM51.8837 61.8333H53.6615V63.6111H51.8837V61.8333ZM51.8837 63.6111H53.6615V65.3889H51.8837V63.6111ZM51.8837 65.3889H53.6615V67.1667H51.8837V65.3889ZM51.8837 67.1667H53.6615V68.9444H51.8837V67.1667ZM51.8837 68.9444H53.6615V70.7222H51.8837V68.9444ZM53.6615 67.1667H55.4392V68.9444H53.6615V67.1667ZM53.6615 65.3889H55.4392V67.1667H53.6615V65.3889ZM53.6615 63.6111H55.4392V65.3889H53.6615V63.6111ZM53.6615 61.8333H55.4392V63.6111H53.6615V61.8333ZM50.1059 65.3889H51.8837V67.1667H50.1059V65.3889ZM50.1059 63.6111H51.8837V65.3889H50.1059V63.6111ZM50.1059 67.1667H51.8837V68.9444H50.1059V67.1667ZM50.1059 68.9444H51.8837V70.7222H50.1059V68.9444ZM50.1059 70.7222H51.8837V72.5H50.1059V70.7222ZM50.1059 72.5H51.8837V74.2778H50.1059V72.5ZM50.1059 74.2778H51.8837V76.0556H50.1059V74.2778ZM50.1059 76.0556H51.8837V77.8333H50.1059V76.0556ZM50.1059 77.8333H51.8837V79.6111H50.1059V77.8333ZM50.1059 79.6111H51.8837V81.3889H50.1059V79.6111ZM50.1059 81.3889H51.8837V83.1667H50.1059V81.3889ZM50.1059 83.1667H51.8837V84.9444H50.1059V83.1667ZM51.8837 83.1667H53.6615V84.9444H51.8837V83.1667ZM51.8837 84.9444H53.6615V86.7222H51.8837V84.9444ZM51.8837 86.7222H53.6615V88.5H51.8837V86.7222ZM50.1059 86.7222H51.8837V88.5H50.1059V86.7222ZM50.1059 84.9444H51.8837V86.7222H50.1059V84.9444ZM53.6615 86.7222H55.4392V88.5H53.6615V86.7222ZM53.6615 84.9444H55.4392V86.7222H53.6615V84.9444ZM53.6615 83.1667H55.4392V84.9444H53.6615V83.1667ZM53.6615 81.3889H55.4392V83.1667H53.6615V81.3889ZM53.6615 79.6111H55.4392V81.3889H53.6615V79.6111ZM53.6615 77.8333H55.4392V79.6111H53.6615V77.8333ZM53.6615 76.0556H55.4392V77.8333H53.6615V76.0556ZM51.8837 76.0556H53.6615V77.8333H51.8837V76.0556ZM51.8837 74.2778H53.6615V76.0556H51.8837V74.2778ZM51.8837 72.5H53.6615V74.2778H51.8837V72.5ZM51.8837 70.7222H53.6615V72.5H51.8837V70.7222ZM53.6615 68.9444H55.4392V70.7222H53.6615V68.9444ZM53.6615 70.7222H55.4392V72.5H53.6615V70.7222ZM53.6615 72.5H55.4392V74.2778H53.6615V72.5ZM53.6615 74.2778H55.4392V76.0556H53.6615V74.2778ZM51.8837 77.8333H53.6615V79.6111H51.8837V77.8333ZM51.8837 79.6111H53.6615V81.3889H51.8837V79.6111ZM51.8837 81.3889H53.6615V83.1667H51.8837V81.3889ZM74.9948 61.8333H76.7726V63.6111H74.9948V61.8333ZM74.9948 63.6111H76.7726V65.3889H74.9948V63.6111ZM74.9948 65.3889H76.7726V67.1667H74.9948V65.3889ZM74.9948 67.1667H76.7726V68.9444H74.9948V67.1667ZM74.9948 68.9444H76.7726V70.7222H74.9948V68.9444ZM74.9948 70.7222H76.7726V72.5H74.9948V70.7222ZM74.9948 72.5H76.7726V74.2778H74.9948V72.5ZM74.9948 74.2778H76.7726V76.0556H74.9948V74.2778ZM74.9948 76.0556H76.7726V77.8333H74.9948V76.0556ZM74.9948 77.8333H76.7726V79.6111H74.9948V77.8333ZM74.9948 79.6111H76.7726V81.3889H74.9948V79.6111ZM74.9948 81.3889H76.7726V83.1667H74.9948V81.3889ZM74.9948 83.1667H76.7726V84.9444H74.9948V83.1667ZM74.9948 84.9444H76.7726V86.7222H74.9948V84.9444ZM74.9948 86.7222H76.7726V88.5H74.9948V86.7222ZM73.217 86.7222H74.9948V88.5H73.217V86.7222ZM71.4392 84.9444H73.217V86.7222H71.4392V84.9444ZM71.4392 83.1667H73.217V84.9444H71.4392V83.1667ZM71.4392 86.7222H73.217V88.5H71.4392V86.7222ZM73.217 84.9444H74.9948V86.7222H73.217V84.9444ZM73.217 83.1667H74.9948V84.9444H73.217V83.1667ZM73.217 81.3889H74.9948V83.1667H73.217V81.3889ZM73.217 79.6111H74.9948V81.3889H73.217V79.6111ZM73.217 77.8333H74.9948V79.6111H73.217V77.8333ZM73.217 76.0556H74.9948V77.8333H73.217V76.0556ZM73.217 74.2778H74.9948V76.0556H73.217V74.2778ZM73.217 72.5H74.9948V74.2778H73.217V72.5ZM73.217 70.7222H74.9948V72.5H73.217V70.7222ZM73.217 68.9444H74.9948V70.7222H73.217V68.9444ZM73.217 67.1667H74.9948V68.9444H73.217V67.1667ZM73.217 65.3889H74.9948V67.1667H73.217V65.3889ZM73.217 63.6111H74.9948V65.3889H73.217V63.6111ZM73.217 61.8333H74.9948V63.6111H73.217V61.8333ZM71.4392 61.8333H73.217V63.6111H71.4392V61.8333ZM71.4392 63.6111H73.217V65.3889H71.4392V63.6111ZM71.4392 65.3889H73.217V67.1667H71.4392V65.3889ZM71.4392 67.1667H73.217V68.9444H71.4392V67.1667ZM71.4392 70.7222H73.217V72.5H71.4392V70.7222ZM71.4392 72.5H73.217V74.2778H71.4392V72.5ZM71.4392 74.2778H73.217V76.0556H71.4392V74.2778ZM71.4392 76.0556H73.217V77.8333H71.4392V76.0556ZM71.4392 81.3889H73.217V83.1667H71.4392V81.3889ZM71.4392 79.6111H73.217V81.3889H71.4392V79.6111ZM71.4392 77.8333H73.217V79.6111H71.4392V77.8333ZM71.4392 68.9444H73.217V70.7222H71.4392V68.9444ZM55.4392 63.6111H57.217V65.3889H55.4392V63.6111ZM55.4392 65.3889H57.217V67.1667H55.4392V65.3889ZM55.4392 67.1667H57.217V68.9444H55.4392V67.1667ZM55.4392 68.9444H57.217V70.7222H55.4392V68.9444ZM55.4392 70.7222H57.217V72.5H55.4392V70.7222ZM57.217 65.3889H58.9948V67.1667H57.217V65.3889ZM57.217 67.1667H58.9948V68.9444H57.217V67.1667ZM57.217 68.9444H58.9948V70.7222H57.217V68.9444ZM57.217 70.7222H58.9948V72.5H57.217V70.7222ZM57.217 72.5H58.9948V74.2778H57.217V72.5ZM58.9948 67.1667H60.7726V68.9444H58.9948V67.1667ZM58.9948 68.9444H60.7726V70.7222H58.9948V68.9444ZM58.9948 70.7222H60.7726V72.5H58.9948V70.7222ZM58.9948 72.5H60.7726V74.2778H58.9948V72.5ZM58.9948 74.2778H60.7726V76.0556H58.9948V74.2778ZM60.7726 68.9444H62.5503V70.7222H60.7726V68.9444ZM60.7726 70.7222H62.5503V72.5H60.7726V70.7222ZM60.7726 72.5H62.5503V74.2778H60.7726V72.5ZM60.7726 74.2778H62.5503V76.0556H60.7726V74.2778ZM60.7726 76.0556H62.5503V77.8333H60.7726V76.0556ZM62.5503 70.7222H64.3281V72.5H62.5503V70.7222ZM62.5503 72.5H64.3281V74.2778H62.5503V72.5ZM62.5503 74.2778H64.3281V76.0556H62.5503V74.2778ZM64.3281 68.9444H66.1059V70.7222H64.3281V68.9444ZM64.3281 70.7222H66.1059V72.5H64.3281V70.7222ZM64.3281 72.5H66.1059V74.2778H64.3281V72.5ZM66.1059 67.1667H67.8837V68.9444H66.1059V67.1667ZM66.1059 68.9444H67.8837V70.7222H66.1059V68.9444ZM66.1059 70.7222H67.8837V72.5H66.1059V70.7222ZM69.6615 63.6111H71.4392V65.3889H69.6615V63.6111ZM69.6615 65.3889H71.4392V67.1667H69.6615V65.3889ZM69.6615 67.1667H71.4392V68.9444H69.6615V67.1667ZM69.6615 68.9444H71.4392V70.7222H69.6615V68.9444ZM69.6615 70.7222H71.4392V72.5H69.6615V70.7222ZM67.8837 65.3889H69.6615V67.1667H67.8837V65.3889ZM67.8837 67.1667H69.6615V68.9444H67.8837V67.1667ZM67.8837 68.9444H69.6615V70.7222H67.8837V68.9444ZM67.8837 70.7222H69.6615V72.5H67.8837V70.7222ZM67.8837 72.5H69.6615V74.2778H67.8837V72.5ZM66.1059 72.5H67.8837V74.2778H66.1059V72.5ZM66.1059 74.2778H67.8837V76.0556H66.1059V74.2778ZM64.3281 74.2778H66.1059V76.0556H64.3281V74.2778ZM64.3281 76.0556H66.1059V77.8333H64.3281V76.0556ZM62.5503 76.0556H64.3281V77.8333H62.5503V76.0556ZM62.5503 77.8333H64.3281V79.6111H62.5503V77.8333ZM103.469 61.8333H105.247V63.6111H103.469V61.8333ZM101.691 61.8333H103.469V63.6111H101.691V61.8333ZM99.9132 61.8333H101.691V63.6111H99.9132V61.8333ZM96.3576 61.8333H98.1354V63.6111H96.3576V61.8333ZM94.5799 61.8333H96.3576V63.6111H94.5799V61.8333ZM92.8021 61.8333H94.5799V63.6111H92.8021V61.8333ZM98.1354 61.8333H99.9132V63.6111H98.1354V61.8333ZM98.1354 63.6111H99.9132V65.3889H98.1354V63.6111ZM99.9132 63.6111H101.691V65.3889H99.9132V63.6111ZM101.691 63.6111H103.469V65.3889H101.691V63.6111ZM103.469 63.6111H105.247V65.3889H103.469V63.6111ZM105.247 63.6111H107.024V65.3889H105.247V63.6111ZM96.3576 63.6111H98.1354V65.3889H96.3576V63.6111ZM94.5799 63.6111H96.3576V65.3889H94.5799V63.6111ZM92.8021 63.6111H94.5799V65.3889H92.8021V63.6111ZM91.0243 63.6111H92.8021V65.3889H91.0243V63.6111ZM89.2465 65.3889H91.0243V67.1667H89.2465V65.3889ZM91.0243 65.3889H92.8021V67.1667H91.0243V65.3889ZM92.8021 65.3889H94.5799V67.1667H92.8021V65.3889ZM94.5799 65.3889H96.3576V67.1667H94.5799V65.3889ZM96.3576 65.3889H98.1354V67.1667H96.3576V65.3889ZM98.1354 65.3889H99.9132V67.1667H98.1354V65.3889ZM99.9132 65.3889H101.691V67.1667H99.9132V65.3889ZM101.691 65.3889H103.469V67.1667H101.691V65.3889ZM103.469 65.3889H105.247V67.1667H103.469V65.3889ZM105.247 65.3889H107.024V67.1667H105.247V65.3889ZM107.024 65.3889H108.802V67.1667H107.024V65.3889ZM107.024 67.1667H108.802V68.9444H107.024V67.1667ZM107.024 68.9444H108.802V70.7222H107.024V68.9444ZM105.247 68.9444H107.024V70.7222H105.247V68.9444ZM105.247 67.1667H107.024V68.9444H105.247V67.1667ZM103.469 68.9444H105.247V70.7222H103.469V68.9444ZM103.469 67.1667H105.247V68.9444H103.469V67.1667ZM101.691 67.1667H103.469V68.9444H101.691V67.1667ZM94.5799 67.1667H96.3576V68.9444H94.5799V67.1667ZM92.8021 67.1667H94.5799V68.9444H92.8021V67.1667ZM91.0243 67.1667H92.8021V68.9444H91.0243V67.1667ZM89.2465 67.1667H91.0243V68.9444H89.2465V67.1667ZM89.2465 68.9444H91.0243V70.7222H89.2465V68.9444ZM91.0243 68.9444H92.8021V70.7222H91.0243V68.9444ZM91.0243 70.7222H92.8021V72.5H91.0243V70.7222ZM92.8021 68.9444H94.5799V70.7222H92.8021V68.9444ZM92.8021 70.7222H94.5799V72.5H92.8021V70.7222ZM94.5799 70.7222H96.3576V72.5H94.5799V70.7222ZM89.2465 70.7222H91.0243V72.5H89.2465V70.7222ZM89.2465 72.5H91.0243V74.2778H89.2465V72.5ZM91.0243 72.5H92.8021V74.2778H91.0243V72.5ZM91.0243 74.2778H92.8021V76.0556H91.0243V74.2778ZM92.8021 74.2778H94.5799V76.0556H92.8021V74.2778ZM92.8021 72.5H94.5799V74.2778H92.8021V72.5ZM94.5799 72.5H96.3576V74.2778H94.5799V72.5ZM94.5799 74.2778H96.3576V76.0556H94.5799V74.2778ZM92.8021 76.0556H94.5799V77.8333H92.8021V76.0556ZM94.5799 76.0556H96.3576V77.8333H94.5799V76.0556ZM96.3576 76.0556H98.1354V77.8333H96.3576V76.0556ZM98.1354 76.0556H99.9132V77.8333H98.1354V76.0556ZM99.9132 76.0556H101.691V77.8333H99.9132V76.0556ZM99.9132 74.2778H101.691V76.0556H99.9132V74.2778ZM101.691 74.2778H103.469V76.0556H101.691V74.2778ZM103.469 74.2778H105.247V76.0556H103.469V74.2778ZM103.469 72.5H105.247V74.2778H103.469V72.5ZM101.691 72.5H103.469V74.2778H101.691V72.5ZM99.9132 72.5H101.691V74.2778H99.9132V72.5ZM98.1354 72.5H99.9132V74.2778H98.1354V72.5ZM98.1354 74.2778H99.9132V76.0556H98.1354V74.2778ZM96.3576 74.2778H98.1354V76.0556H96.3576V74.2778ZM96.3576 72.5H98.1354V74.2778H96.3576V72.5ZM105.247 74.2778H107.024V76.0556H105.247V74.2778ZM105.247 76.0556H107.024V77.8333H105.247V76.0556ZM103.469 76.0556H105.247V77.8333H103.469V76.0556ZM103.469 77.8333H105.247V79.6111H103.469V77.8333ZM101.691 77.8333H103.469V79.6111H101.691V77.8333ZM101.691 76.0556H103.469V77.8333H101.691V76.0556ZM105.247 77.8333H107.024V79.6111H105.247V77.8333ZM107.024 77.8333H108.802V79.6111H107.024V77.8333ZM107.024 76.0556H108.802V77.8333H107.024V76.0556ZM107.024 79.6111H108.802V81.3889H107.024V79.6111ZM107.024 81.3889H108.802V83.1667H107.024V81.3889ZM107.024 83.1667H108.802V84.9444H107.024V83.1667ZM105.247 83.1667H107.024V84.9444H105.247V83.1667ZM105.247 84.9444H107.024V86.7222H105.247V84.9444ZM103.469 84.9444H105.247V86.7222H103.469V84.9444ZM103.469 83.1667H105.247V84.9444H103.469V83.1667ZM101.691 83.1667H103.469V84.9444H101.691V83.1667ZM101.691 81.3889H103.469V83.1667H101.691V81.3889ZM103.469 81.3889H105.247V83.1667H103.469V81.3889ZM103.469 79.6111H105.247V81.3889H103.469V79.6111ZM105.247 79.6111H107.024V81.3889H105.247V79.6111ZM105.247 81.3889H107.024V83.1667H105.247V81.3889ZM89.2465 79.6111H91.0243V81.3889H89.2465V79.6111ZM89.2465 81.3889H91.0243V83.1667H89.2465V81.3889ZM91.0243 81.3889H92.8021V83.1667H91.0243V81.3889ZM91.0243 79.6111H92.8021V81.3889H91.0243V79.6111ZM92.8021 79.6111H94.5799V81.3889H92.8021V79.6111ZM92.8021 81.3889H94.5799V83.1667H92.8021V81.3889ZM89.2465 83.1667H91.0243V84.9444H89.2465V83.1667ZM91.0243 83.1667H92.8021V84.9444H91.0243V83.1667ZM94.5799 81.3889H96.3576V83.1667H94.5799V81.3889ZM94.5799 83.1667H96.3576V84.9444H94.5799V83.1667ZM92.8021 83.1667H94.5799V84.9444H92.8021V83.1667ZM92.8021 84.9444H94.5799V86.7222H92.8021V84.9444ZM91.0243 84.9444H92.8021V86.7222H91.0243V84.9444ZM92.8021 86.7222H94.5799V88.5H92.8021V86.7222ZM94.5799 86.7222H96.3576V88.5H94.5799V86.7222ZM96.3576 86.7222H98.1354V88.5H96.3576V86.7222ZM98.1354 86.7222H99.9132V88.5H98.1354V86.7222ZM99.9132 86.7222H101.691V88.5H99.9132V86.7222ZM101.691 86.7222H103.469V88.5H101.691V86.7222ZM103.469 86.7222H105.247V88.5H103.469V86.7222ZM101.691 84.9444H103.469V86.7222H101.691V84.9444ZM99.9132 84.9444H101.691V86.7222H99.9132V84.9444ZM98.1354 84.9444H99.9132V86.7222H98.1354V84.9444ZM98.1354 83.1667H99.9132V84.9444H98.1354V83.1667ZM96.3576 83.1667H98.1354V84.9444H96.3576V83.1667ZM99.9132 83.1667H101.691V84.9444H99.9132V83.1667ZM96.3576 84.9444H98.1354V86.7222H96.3576V84.9444ZM94.5799 84.9444H96.3576V86.7222H94.5799V84.9444ZM117.689 72.5H119.467V74.2778H117.689V72.5ZM119.467 72.5H121.245V74.2778H119.467V72.5ZM121.245 72.5H123.023V74.2778H121.245V72.5ZM123.023 72.5H124.8V74.2778H123.023V72.5ZM124.8 72.5H126.578V74.2778H124.8V72.5ZM124.8 74.2778H126.578V76.0556H124.8V74.2778ZM124.8 76.0556H126.578V77.8333H124.8V76.0556ZM123.023 76.0556H124.8V77.8333H123.023V76.0556ZM121.245 76.0556H123.023V77.8333H121.245V76.0556ZM119.467 76.0556H121.245V77.8333H119.467V76.0556ZM117.689 76.0556H119.467V77.8333H117.689V76.0556ZM115.911 76.0556H117.689V77.8333H115.911V76.0556ZM114.134 76.0556H115.911V77.8333H114.134V76.0556ZM115.911 74.2778H117.689V76.0556H115.911V74.2778ZM117.689 74.2778H119.467V76.0556H117.689V74.2778ZM119.467 74.2778H121.245V76.0556H119.467V74.2778ZM121.245 74.2778H123.023V76.0556H121.245V74.2778ZM123.023 74.2778H124.8V76.0556H123.023V74.2778ZM115.911 72.5H117.689V74.2778H115.911V72.5ZM115.911 70.7222H117.689V72.5H115.911V70.7222ZM115.911 68.9444H117.689V70.7222H115.911V68.9444ZM115.911 67.1667H117.689V68.9444H115.911V67.1667ZM115.911 65.3889H117.689V67.1667H115.911V65.3889ZM114.134 63.6111H115.911V65.3889H114.134V63.6111ZM114.134 61.8333H115.911V63.6111H114.134V61.8333ZM115.911 61.8333H117.689V63.6111H115.911V61.8333ZM115.911 63.6111H117.689V65.3889H115.911V63.6111ZM112.356 61.8333H114.134V63.6111H112.356V61.8333ZM112.356 63.6111H114.134V65.3889H112.356V63.6111ZM112.356 65.3889H114.134V67.1667H112.356V65.3889ZM112.356 67.1667H114.134V68.9444H112.356V67.1667ZM112.356 68.9444H114.134V70.7222H112.356V68.9444ZM112.356 70.7222H114.134V72.5H112.356V70.7222ZM112.356 72.5H114.134V74.2778H112.356V72.5ZM112.356 74.2778H114.134V76.0556H112.356V74.2778ZM112.356 76.0556H114.134V77.8333H112.356V76.0556ZM114.134 74.2778H115.911V76.0556H114.134V74.2778ZM114.134 72.5H115.911V74.2778H114.134V72.5ZM114.134 70.7222H115.911V72.5H114.134V70.7222ZM114.134 68.9444H115.911V70.7222H114.134V68.9444ZM114.134 67.1667H115.911V68.9444H114.134V67.1667ZM114.134 65.3889H115.911V67.1667H114.134V65.3889ZM114.134 77.8333H115.911V79.6111H114.134V77.8333ZM114.134 79.6111H115.911V81.3889H114.134V79.6111ZM114.134 81.3889H115.911V83.1667H114.134V81.3889ZM114.134 83.1667H115.911V84.9444H114.134V83.1667ZM112.356 81.3889H114.134V83.1667H112.356V81.3889ZM112.356 79.6111H114.134V81.3889H112.356V79.6111ZM112.356 77.8333H114.134V79.6111H112.356V77.8333ZM115.911 81.3889H117.689V83.1667H115.911V81.3889ZM115.911 83.1667H117.689V84.9444H115.911V83.1667ZM115.911 79.6111H117.689V81.3889H115.911V79.6111ZM115.911 77.8333H117.689V79.6111H115.911V77.8333ZM115.911 84.9444H117.689V86.7222H115.911V84.9444ZM115.911 86.7222H117.689V88.5H115.911V86.7222ZM114.134 86.7222H115.911V88.5H114.134V86.7222ZM114.134 84.9444H115.911V86.7222H114.134V84.9444ZM112.356 84.9444H114.134V86.7222H112.356V84.9444ZM112.356 83.1667H114.134V84.9444H112.356V83.1667ZM112.356 86.7222H114.134V88.5H112.356V86.7222ZM124.8 61.8333H126.578V63.6111H124.8V61.8333ZM126.578 61.8333H128.356V63.6111H126.578V61.8333ZM128.356 61.8333H130.134V63.6111H128.356V61.8333ZM128.356 63.6111H130.134V65.3889H128.356V63.6111ZM128.356 65.3889H130.134V67.1667H128.356V65.3889ZM128.356 67.1667H130.134V68.9444H128.356V67.1667ZM128.356 68.9444H130.134V70.7222H128.356V68.9444ZM128.356 70.7222H130.134V72.5H128.356V70.7222ZM126.578 70.7222H128.356V72.5H126.578V70.7222ZM126.578 68.9444H128.356V70.7222H126.578V68.9444ZM126.578 67.1667H128.356V68.9444H126.578V67.1667ZM126.578 65.3889H128.356V67.1667H126.578V65.3889ZM126.578 63.6111H128.356V65.3889H126.578V63.6111ZM124.8 63.6111H126.578V65.3889H124.8V63.6111ZM124.8 65.3889H126.578V67.1667H124.8V65.3889ZM124.8 67.1667H126.578V68.9444H124.8V67.1667ZM124.8 68.9444H126.578V70.7222H124.8V68.9444ZM124.8 70.7222H126.578V72.5H124.8V70.7222ZM124.8 77.8333H126.578V79.6111H124.8V77.8333ZM126.578 77.8333H128.356V79.6111H126.578V77.8333ZM126.578 79.6111H128.356V81.3889H126.578V79.6111ZM126.578 81.3889H128.356V83.1667H126.578V81.3889ZM126.578 83.1667H128.356V84.9444H126.578V83.1667ZM124.8 83.1667H126.578V84.9444H124.8V83.1667ZM124.8 81.3889H126.578V83.1667H124.8V81.3889ZM124.8 79.6111H126.578V81.3889H124.8V79.6111ZM124.8 84.9444H126.578V86.7222H124.8V84.9444ZM124.8 86.7222H126.578V88.5H124.8V86.7222ZM126.578 86.7222H128.356V88.5H126.578V86.7222ZM128.356 86.7222H130.134V88.5H128.356V86.7222ZM128.356 84.9444H130.134V86.7222H128.356V84.9444ZM128.356 83.1667H130.134V84.9444H128.356V83.1667ZM128.356 81.3889H130.134V83.1667H128.356V81.3889ZM128.356 79.6111H130.134V81.3889H128.356V79.6111ZM128.356 77.8333H130.134V79.6111H128.356V77.8333ZM128.356 76.0556H130.134V77.8333H128.356V76.0556ZM128.356 74.2778H130.134V76.0556H128.356V74.2778ZM126.578 74.2778H128.356V76.0556H126.578V74.2778ZM126.578 72.5H128.356V74.2778H126.578V72.5ZM128.356 72.5H130.134V74.2778H128.356V72.5ZM126.578 76.0556H128.356V77.8333H126.578V76.0556ZM126.578 84.9444H128.356V86.7222H126.578V84.9444Z" fill="white"/>
</svg>
